{
  "accessors": [
    {
      "name": "XL120101JKSS_039_1_0_positions",
      "componentType": 5126,
      "count": 130,
      "min": [
        -0.07190000265836716,
        0,
        -0.0763000026345253
      ],
      "max": [
        1.4148999452590942,
        4.56820011138916,
        0.07370000332593918
      ],
      "type": "VEC3",
      "bufferView": 0,
      "byteOffset": 0
    },
    {
      "name": "XL120101JKSS_039_1_0_normals",
      "componentType": 5126,
      "count": 130,
      "min": [
        -0.924203097820282,
        -0.9360328912734985,
        -0.9999997019767761
      ],
      "max": [
        0.9999997019767761,
        1,
        0.9999997019767761
      ],
      "type": "VEC3",
      "bufferView": 1,
      "byteOffset": 0
    },
    {
      "name": "XL120101JKSS_039_1_0_texcoords",
      "componentType": 5126,
      "count": 130,
      "min": [
        -0.6420000195503235,
        -0.6420000195503235
      ],
      "max": [
        1.6419999599456787,
        1.6419999599456787
      ],
      "type": "VEC2",
      "bufferView": 2,
      "byteOffset": 0
    },
    {
      "name": "XL120101JKSS_039_1_0_indices",
      "componentType": 5123,
      "count": 210,
      "min": [
        0
      ],
      "max": [
        129
      ],
      "type": "SCALAR",
      "bufferView": 3,
      "byteOffset": 0
    },
    {
      "name": "XL120101JKSS_039_1_1_positions",
      "componentType": 5126,
      "count": 288,
      "min": [
        1.2651000022888184,
        4.184299945831299,
        -0.07959999889135361
      ],
      "max": [
        1.367300033569336,
        4.32289981842041,
        0.15289999544620514
      ],
      "type": "VEC3",
      "bufferView": 0,
      "byteOffset": 1560
    },
    {
      "name": "XL120101JKSS_039_1_1_normals",
      "componentType": 5126,
      "count": 288,
      "min": [
        -0.9999999403953552,
        -1,
        -0.9615010023117065
      ],
      "max": [
        0.9999998807907104,
        1,
        0.986193060874939
      ],
      "type": "VEC3",
      "bufferView": 1,
      "byteOffset": 1560
    },
    {
      "name": "XL120101JKSS_039_1_1_texcoords",
      "componentType": 5126,
      "count": 288,
      "min": [
        0.2468000054359436,
        0.2460000067949295
      ],
      "max": [
        0.7530999779701233,
        0.7540000081062317
      ],
      "type": "VEC2",
      "bufferView": 2,
      "byteOffset": 1040
    },
    {
      "name": "XL120101JKSS_039_1_1_indices",
      "componentType": 5123,
      "count": 492,
      "min": [
        0
      ],
      "max": [
        287
      ],
      "type": "SCALAR",
      "bufferView": 3,
      "byteOffset": 420
    },
    {
      "name": "XL120101JKSS_039_1_2_positions",
      "componentType": 5126,
      "count": 18,
      "min": [
        1.2651000022888184,
        4.2434000968933105,
        -0.07429999858140945
      ],
      "max": [
        1.367300033569336,
        4.32289981842041,
        0.15289999544620514
      ],
      "type": "VEC3",
      "bufferView": 0,
      "byteOffset": 5016
    },
    {
      "name": "XL120101JKSS_039_1_2_normals",
      "componentType": 5126,
      "count": 18,
      "min": [
        -0.9900735020637512,
        0.13889628648757935,
        0.021499425172805786
      ],
      "max": [
        0.9858009815216064,
        0.48830798268318176,
        0.07760126888751984
      ],
      "type": "VEC3",
      "bufferView": 1,
      "byteOffset": 5016
    },
    {
      "name": "XL120101JKSS_039_1_2_texcoords",
      "componentType": 5126,
      "count": 18,
      "min": [
        0.0005000000237487257,
        0.0005000000237487257
      ],
      "max": [
        0.9623000025749207,
        0.7124000191688538
      ],
      "type": "VEC2",
      "bufferView": 2,
      "byteOffset": 3344
    },
    {
      "name": "XL120101JKSS_039_1_2_indices",
      "componentType": 5123,
      "count": 30,
      "min": [
        0
      ],
      "max": [
        17
      ],
      "type": "SCALAR",
      "bufferView": 3,
      "byteOffset": 1404
    },
    {
      "name": "XL120101JKSS_039_1_3_positions",
      "componentType": 5126,
      "count": 12,
      "min": [
        1.2652000188827515,
        4.243299961090088,
        -0.07959999889135361
      ],
      "max": [
        1.367300033569336,
        4.32289981842041,
        -0.06589999794960022
      ],
      "type": "VEC3",
      "bufferView": 0,
      "byteOffset": 5232
    },
    {
      "name": "XL120101JKSS_039_1_3_normals",
      "componentType": 5126,
      "count": 12,
      "min": [
        -0.011799686588346958,
        0.16079644858837128,
        -0.9869782328605652
      ],
      "max": [
        0.0008000208763405681,
        0.17569532990455627,
        -0.9843738675117493
      ],
      "type": "VEC3",
      "bufferView": 1,
      "byteOffset": 5232
    },
    {
      "name": "XL120101JKSS_039_1_3_texcoords",
      "componentType": 5126,
      "count": 12,
      "min": [
        0.0005000000237487257,
        0.0005000000237487257
      ],
      "max": [
        0.9994999766349792,
        0.9994999766349792
      ],
      "type": "VEC2",
      "bufferView": 2,
      "byteOffset": 3488
    },
    {
      "name": "XL120101JKSS_039_1_3_indices",
      "componentType": 5123,
      "count": 30,
      "min": [
        0
      ],
      "max": [
        11
      ],
      "type": "SCALAR",
      "bufferView": 3,
      "byteOffset": 1464
    },
    {
      "name": "XL120101JKSS_039_1_4_positions",
      "componentType": 5126,
      "count": 10,
      "min": [
        1.2689000368118286,
        4.214099884033203,
        0.10130000114440918
      ],
      "max": [
        1.3632999658584595,
        4.290599822998047,
        0.1143999993801117
      ],
      "type": "VEC3",
      "bufferView": 0,
      "byteOffset": 5376
    },
    {
      "name": "XL120101JKSS_039_1_4_normals",
      "componentType": 5126,
      "count": 10,
      "min": [
        -0.005299963057041168,
        -0.1719023585319519,
        0.9851135015487671
      ],
      "max": [
        0.000500011257827282,
        -0.16189886629581451,
        0.9868066906929016
      ],
      "type": "VEC3",
      "bufferView": 1,
      "byteOffset": 5376
    },
    {
      "name": "XL120101JKSS_039_1_4_texcoords",
      "componentType": 5126,
      "count": 10,
      "min": [
        0.045099999755620956,
        0.05460000038146973
      ],
      "max": [
        0.9517999887466431,
        0.9994999766349792
      ],
      "type": "VEC2",
      "bufferView": 2,
      "byteOffset": 3584
    },
    {
      "name": "XL120101JKSS_039_1_4_indices",
      "componentType": 5123,
      "count": 24,
      "min": [
        0
      ],
      "max": [
        9
      ],
      "type": "SCALAR",
      "bufferView": 3,
      "byteOffset": 1524
    },
    {
      "name": "XL120101JKSS_039_1_5_positions",
      "componentType": 5126,
      "count": 24,
      "min": [
        0.03229999914765358,
        2.704900026321411,
        -0.16329999268054962
      ],
      "max": [
        0.23350000381469727,
        3.1445999145507812,
        0.16140000522136688
      ],
      "type": "VEC3",
      "bufferView": 0,
      "byteOffset": 5496
    },
    {
      "name": "XL120101JKSS_039_1_5_normals",
      "componentType": 5126,
      "count": 24,
      "min": [
        -0.9999997019767761,
        -1,
        -0.0007999997469596565
      ],
      "max": [
        0.9999997019767761,
        0.9641100764274597,
        0.0007999997469596565
      ],
      "type": "VEC3",
      "bufferView": 1,
      "byteOffset": 5496
    },
    {
      "name": "XL120101JKSS_039_1_5_texcoords",
      "componentType": 5126,
      "count": 24,
      "min": [
        -0.0471000000834465,
        -0.14820000529289246
      ],
      "max": [
        1.0470999479293823,
        0.8388000130653381
      ],
      "type": "VEC2",
      "bufferView": 2,
      "byteOffset": 3664
    },
    {
      "name": "XL120101JKSS_039_1_5_indices",
      "componentType": 5123,
      "count": 36,
      "min": [
        0
      ],
      "max": [
        23
      ],
      "type": "SCALAR",
      "bufferView": 3,
      "byteOffset": 1572
    },
    {
      "name": "XL120101JKSS_039_1_6_positions",
      "componentType": 5126,
      "count": 8,
      "min": [
        0.046300001442432404,
        2.704900026321411,
        -0.1492999941110611
      ],
      "max": [
        0.21950000524520874,
        3.0954999923706055,
        0.14740000665187836
      ],
      "type": "VEC3",
      "bufferView": 0,
      "byteOffset": 5784
    },
    {
      "name": "XL120101JKSS_039_1_6_normals",
      "componentType": 5126,
      "count": 8,
      "min": [
        -0.9999997019767761,
        0,
        -0.0007999997469596565
      ],
      "max": [
        0.9999997019767761,
        0,
        0.0007999997469596565
      ],
      "type": "VEC3",
      "bufferView": 1,
      "byteOffset": 5784
    },
    {
      "name": "XL120101JKSS_039_1_6_texcoords",
      "componentType": 5126,
      "count": 8,
      "min": [
        0,
        0.05640000104904175
      ],
      "max": [
        1,
        0.9315999746322632
      ],
      "type": "VEC2",
      "bufferView": 2,
      "byteOffset": 3856
    },
    {
      "name": "XL120101JKSS_039_1_6_indices",
      "componentType": 5123,
      "count": 12,
      "min": [
        0
      ],
      "max": [
        7
      ],
      "type": "SCALAR",
      "bufferView": 3,
      "byteOffset": 1644
    },
    {
      "name": "XL120101JKSS_039_1_7_positions",
      "componentType": 5126,
      "count": 10,
      "min": [
        0.03229999914765358,
        3.0954999923706055,
        -0.16329999268054962
      ],
      "max": [
        0.23350000381469727,
        3.1445999145507812,
        0.16140000522136688
      ],
      "type": "VEC3",
      "bufferView": 0,
      "byteOffset": 5880
    },
    {
      "name": "XL120101JKSS_039_1_7_normals",
      "componentType": 5126,
      "count": 10,
      "min": [
        -0.0007999997469596565,
        0,
        -0.9999997019767761
      ],
      "max": [
        0.0007999997469596565,
        0,
        0.9999997019767761
      ],
      "type": "VEC3",
      "bufferView": 1,
      "byteOffset": 5880
    },
    {
      "name": "XL120101JKSS_039_1_7_texcoords",
      "componentType": 5126,
      "count": 10,
      "min": [
        0.0005000000237487257,
        0.0005000000237487257
      ],
      "max": [
        0.9994999766349792,
        0.9994999766349792
      ],
      "type": "VEC2",
      "bufferView": 2,
      "byteOffset": 3920
    },
    {
      "name": "XL120101JKSS_039_1_7_indices",
      "componentType": 5123,
      "count": 18,
      "min": [
        0
      ],
      "max": [
        9
      ],
      "type": "SCALAR",
      "bufferView": 3,
      "byteOffset": 1668
    },
    {
      "name": "XL120101JKSS_039_1_8_positions",
      "componentType": 5126,
      "count": 8,
      "min": [
        0.046300001442432404,
        2.704900026321411,
        -0.1492999941110611
      ],
      "max": [
        0.21950000524520874,
        3.0954999923706055,
        0.14740000665187836
      ],
      "type": "VEC3",
      "bufferView": 0,
      "byteOffset": 6000
    },
    {
      "name": "XL120101JKSS_039_1_8_normals",
      "componentType": 5126,
      "count": 8,
      "min": [
        -0.0007999997469596565,
        0,
        -0.9999997019767761
      ],
      "max": [
        0.0007999997469596565,
        0,
        0.9999997019767761
      ],
      "type": "VEC3",
      "bufferView": 1,
      "byteOffset": 6000
    },
    {
      "name": "XL120101JKSS_039_1_8_texcoords",
      "componentType": 5126,
      "count": 8,
      "min": [
        0.0005000000237487257,
        0.0005000000237487257
      ],
      "max": [
        0.9994999766349792,
        0.9883999824523926
      ],
      "type": "VEC2",
      "bufferView": 2,
      "byteOffset": 4000
    },
    {
      "name": "XL120101JKSS_039_1_8_indices",
      "componentType": 5123,
      "count": 12,
      "min": [
        0
      ],
      "max": [
        7
      ],
      "type": "SCALAR",
      "bufferView": 3,
      "byteOffset": 1704
    }
  ],
  "asset": {
    "generator": "obj2gltf",
    "version": "2.0"
  },
  "buffers": [
    {
      "name": "SXT",
      "byteLength": 853392,
      "uri": "data:application/octet-stream;base64,"
    }
  ],
  "bufferViews": [
    {
      "name": "bufferView_0",
      "buffer": 0,
      "byteLength": 6096,
      "byteOffset": 0,
      "byteStride": 12,
      "target": 34962
    },
    {
      "name": "bufferView_1",
      "buffer": 0,
      "byteLength": 6096,
      "byteOffset": 6096,
      "byteStride": 12,
      "target": 34962
    },
    {
      "name": "bufferView_2",
      "buffer": 0,
      "byteLength": 4064,
      "byteOffset": 12192,
      "byteStride": 8,
      "target": 34962
    },
    {
      "name": "bufferView_3",
      "buffer": 0,
      "byteLength": 1728,
      "byteOffset": 16256,
      "target": 34963
    },
    {
      "buffer": 0,
      "byteOffset": 17984,
      "byteLength": 78496
    },
    {
      "buffer": 0,
      "byteOffset": 96480,
      "byteLength": 40818
    },
    {
      "buffer": 0,
      "byteOffset": 137298,
      "byteLength": 133952
    },
    {
      "buffer": 0,
      "byteOffset": 271250,
      "byteLength": 109048
    },
    {
      "buffer": 0,
      "byteOffset": 380298,
      "byteLength": 102137
    },
    {
      "buffer": 0,
      "byteOffset": 482435,
      "byteLength": 159437
    },
    {
      "buffer": 0,
      "byteOffset": 641872,
      "byteLength": 57935
    },
    {
      "buffer": 0,
      "byteOffset": 699807,
      "byteLength": 93879
    },
    {
      "buffer": 0,
      "byteOffset": 793686,
      "byteLength": 59705
    }
  ],
  "images": [
    {
      "name": "XLLAA04P",
      "mimeType": "image/jpeg",
      "bufferView": 4
    },
    {
      "name": "XLLAA02V",
      "mimeType": "image/jpeg",
      "bufferView": 5
    },
    {
      "name": "XLLAA02Y",
      "mimeType": "image/jpeg",
      "bufferView": 6
    },
    {
      "name": "XLLAA02X",
      "mimeType": "image/jpeg",
      "bufferView": 7
    },
    {
      "name": "XLLAA02W",
      "mimeType": "image/jpeg",
      "bufferView": 8
    },
    {
      "name": "XLLAA04T",
      "mimeType": "image/jpeg",
      "bufferView": 9
    },
    {
      "name": "XLLAA04Q",
      "mimeType": "image/jpeg",
      "bufferView": 10
    },
    {
      "name": "XLLAA04S",
      "mimeType": "image/jpeg",
      "bufferView": 11
    },
    {
      "name": "XLLAA04R",
      "mimeType": "image/jpeg",
      "bufferView": 12
    }
  ],
  "materials": [
    {
      "name": "Material__2121897369",
      "pbrMetallicRoughness": {
        "baseColorTexture": {
          "index": 0
        },
        "baseColorFactor": [
          1,
          1,
          1,
          1
        ],
        "metallicFactor": 0,
        "roughnessFactor": 0.99
      },
      "emissiveFactor": [
        0,
        0,
        0
      ],
      "alphaMode": "OPAQUE",
      "doubleSided": false
    },
    {
      "name": "024",
      "pbrMetallicRoughness": {
        "baseColorTexture": {
          "index": 1
        },
        "baseColorFactor": [
          1,
          1,
          1,
          1
        ],
        "metallicFactor": 0,
        "roughnessFactor": 0.99
      },
      "emissiveFactor": [
        0,
        0,
        0
      ],
      "alphaMode": "OPAQUE",
      "doubleSided": false
    },
    {
      "name": "NB_DQH_04_QHSJY_1_1032",
      "pbrMetallicRoughness": {
        "baseColorTexture": {
          "index": 2
        },
        "baseColorFactor": [
          1,
          1,
          1,
          1
        ],
        "metallicFactor": 0,
        "roughnessFactor": 0.99
      },
      "emissiveFactor": [
        0,
        0,
        0
      ],
      "alphaMode": "OPAQUE",
      "doubleSided": false
    },
    {
      "name": "NB_DQH_04_QHSJY_1_1035",
      "pbrMetallicRoughness": {
        "baseColorTexture": {
          "index": 3
        },
        "baseColorFactor": [
          1,
          1,
          1,
          1
        ],
        "metallicFactor": 0,
        "roughnessFactor": 0.99
      },
      "emissiveFactor": [
        0,
        0,
        0
      ],
      "alphaMode": "OPAQUE",
      "doubleSided": false
    },
    {
      "name": "085",
      "pbrMetallicRoughness": {
        "baseColorTexture": {
          "index": 4
        },
        "baseColorFactor": [
          1,
          1,
          1,
          1
        ],
        "metallicFactor": 0,
        "roughnessFactor": 0.99
      },
      "emissiveFactor": [
        0,
        0,
        0
      ],
      "alphaMode": "OPAQUE",
      "doubleSided": false
    },
    {
      "name": "Material__2121897344",
      "pbrMetallicRoughness": {
        "baseColorTexture": {
          "index": 5
        },
        "baseColorFactor": [
          1,
          1,
          1,
          1
        ],
        "metallicFactor": 0,
        "roughnessFactor": 0.99
      },
      "emissiveFactor": [
        0,
        0,
        0
      ],
      "alphaMode": "OPAQUE",
      "doubleSided": false
    },
    {
      "name": "Material__738",
      "pbrMetallicRoughness": {
        "baseColorTexture": {
          "index": 6
        },
        "baseColorFactor": [
          1,
          1,
          1,
          1
        ],
        "metallicFactor": 0,
        "roughnessFactor": 0.99
      },
      "emissiveFactor": [
        0,
        0,
        0
      ],
      "alphaMode": "OPAQUE",
      "doubleSided": false
    },
    {
      "name": "Material__810",
      "pbrMetallicRoughness": {
        "baseColorTexture": {
          "index": 7
        },
        "baseColorFactor": [
          1,
          1,
          1,
          1
        ],
        "metallicFactor": 0,
        "roughnessFactor": 0.99
      },
      "emissiveFactor": [
        0,
        0,
        0
      ],
      "alphaMode": "OPAQUE",
      "doubleSided": false
    },
    {
      "name": "Material__751",
      "pbrMetallicRoughness": {
        "baseColorTexture": {
          "index": 8
        },
        "baseColorFactor": [
          1,
          1,
          1,
          1
        ],
        "metallicFactor": 0,
        "roughnessFactor": 0.99
      },
      "emissiveFactor": [
        0,
        0,
        0
      ],
      "alphaMode": "OPAQUE",
      "doubleSided": false
    }
  ],
  "meshes": [
    {
      "name": "XL120101JKSS_039_1",
      "primitives": [
        {
          "attributes": {
            "POSITION": 0,
            "NORMAL": 1,
            "TEXCOORD_0": 2
          },
          "indices": 3,
          "material": 0,
          "mode": 4
        },
        {
          "attributes": {
            "POSITION": 4,
            "NORMAL": 5,
            "TEXCOORD_0": 6
          },
          "indices": 7,
          "material": 1,
          "mode": 4
        },
        {
          "attributes": {
            "POSITION": 8,
            "NORMAL": 9,
            "TEXCOORD_0": 10
          },
          "indices": 11,
          "material": 2,
          "mode": 4
        },
        {
          "attributes": {
            "POSITION": 12,
            "NORMAL": 13,
            "TEXCOORD_0": 14
          },
          "indices": 15,
          "material": 3,
          "mode": 4
        },
        {
          "attributes": {
            "POSITION": 16,
            "NORMAL": 17,
            "TEXCOORD_0": 18
          },
          "indices": 19,
          "material": 4,
          "mode": 4
        },
        {
          "attributes": {
            "POSITION": 20,
            "NORMAL": 21,
            "TEXCOORD_0": 22
          },
          "indices": 23,
          "material": 5,
          "mode": 4
        },
        {
          "attributes": {
            "POSITION": 24,
            "NORMAL": 25,
            "TEXCOORD_0": 26
          },
          "indices": 27,
          "material": 6,
          "mode": 4
        },
        {
          "attributes": {
            "POSITION": 28,
            "NORMAL": 29,
            "TEXCOORD_0": 30
          },
          "indices": 31,
          "material": 7,
          "mode": 4
        },
        {
          "attributes": {
            "POSITION": 32,
            "NORMAL": 33,
            "TEXCOORD_0": 34
          },
          "indices": 35,
          "material": 8,
          "mode": 4
        }
      ]
    }
  ],
  "nodes": [
    {
      "name": "XL120101JKSS_039",
      "mesh": 0
    }
  ],
  "samplers": [
    {
      "magFilter": 9729,
      "minFilter": 9986,
      "wrapS": 10497,
      "wrapT": 10497
    }
  ],
  "scene": 0,
  "scenes": [
    {
      "nodes": [
        0
      ]
    }
  ],
  "textures": [
    {
      "name": "XLLAA04P",
      "sampler": 0,
      "source": 0
    },
    {
      "name": "XLLAA02V",
      "sampler": 0,
      "source": 1
    },
    {
      "name": "XLLAA02Y",
      "sampler": 0,
      "source": 2
    },
    {
      "name": "XLLAA02X",
      "sampler": 0,
      "source": 3
    },
    {
      "name": "XLLAA02W",
      "sampler": 0,
      "source": 4
    },
    {
      "name": "XLLAA04T",
      "sampler": 0,
      "source": 5
    },
    {
      "name": "XLLAA04Q",
      "sampler": 0,
      "source": 6
    },
    {
      "name": "XLLAA04S",
      "sampler": 0,
      "source": 7
    },
    {
      "name": "XLLAA04R",
      "sampler": 0,
      "source": 8
    }
  ]
}
